<svg width="164" height="152" viewBox="0 0 164 152" fill="none" xmlns="http://www.w3.org/2000/svg">
<path d="M94.4857 85.669C93.1713 86.0034 91.9005 86.5907 90.752 87.394C87.7581 89.4379 86.0754 92.2841 86.9938 93.7507C87.9121 95.2173 91.0834 94.7484 94.0773 92.7046C95.2426 91.928 96.2674 90.9483 97.0887 89.8261C97.4692 89.2843 97.5173 88.621 97.2116 88.1345L96.0187 86.2293C95.715 85.7412 95.1135 85.5217 94.4857 85.669Z" fill="#D5D6DB"/>
<path d="M85.8497 59.4507C84.8966 59.6933 83.975 60.1193 83.1421 60.7019C80.9718 62.1836 79.7509 64.2474 80.4162 65.3099C81.0816 66.3724 83.3821 66.0322 85.5521 64.5507C86.3971 63.9873 87.1401 63.2766 87.7358 62.4628C88.0113 62.0701 88.046 61.5895 87.8245 61.2368L86.9607 59.8573C86.7408 59.5035 86.3049 59.3439 85.8497 59.4507Z" fill="#D5D6DB"/>
<path d="M73.3895 60.9015C73.1748 60.8834 72.9487 60.9469 72.7555 61.0792L67.6575 64.5599C67.2311 64.8502 67.0756 65.3909 67.3106 65.7678C67.3643 65.8542 67.4363 65.9273 67.5224 65.9827L80.6979 74.5243L97.6969 62.9179L73.3895 60.9015Z" fill="#029BC5"/>
<path d="M128.338 58.1302L82.0639 89.348L54.4547 101.306L40.2725 104.549L38.6055 101.912L115.772 50.8356C118.071 49.3072 120.659 48.3367 123.273 48.0226C124.418 47.8912 125.554 47.8983 126.654 48.0433C127.629 48.1642 128.558 48.4235 129.416 48.8136C130.373 49.256 132.164 49.2607 132.777 50.1777C132.779 50.1762 134.299 54.4217 128.338 58.1302V58.1302Z" fill="#E1E6E9"/>
<path d="M82.5501 85.3724L63.2387 118.708C62.9993 119.175 63.1696 119.687 63.6186 119.85C63.8941 119.95 64.2252 119.898 64.4982 119.713L69.5927 116.25C70.5725 115.583 71.4314 114.748 72.1162 113.794L110.162 65.8306L82.5501 85.3724Z" fill="#029BC5"/>
<path d="M30.8315 85.7005C30.4857 85.5927 30.0813 85.6647 29.7459 85.8935L25.5351 88.7668C24.9613 89.158 24.753 89.8856 25.0698 90.392C25.1301 90.4883 25.207 90.5724 25.298 90.6409L37.7172 100.014L50.1271 91.7063L30.8315 85.7005Z" fill="#029BC5"/>
<path d="M41.8263 101.653L35.654 110.966C35.5634 111.1 35.5917 111.264 35.7171 111.333C35.8076 111.382 35.9282 111.369 36.0242 111.301L39.9598 108.628C39.9903 108.608 40.0178 108.582 40.0402 108.553L49.1216 96.7036L41.8263 101.653Z" fill="#029BC5"/>
<path d="M125.891 48.4585C124.758 48.3079 123.588 48.3013 122.409 48.4382C121.315 50.0866 120.643 51.9229 120.461 53.764C120.457 54.133 120.762 54.3901 121.144 54.3382C121.262 54.3219 121.379 54.2767 121.484 54.2064L128.736 49.2589C127.853 48.8534 126.895 48.5839 125.891 48.4585Z" fill="#029BC5"/>
<path d="M110.029 57.6259L114.765 54.421L119.553 62.0017L114.817 65.2066L110.029 57.6259Z" fill="#D5D6DB"/>
<path d="M107.089 60.757C106.518 61.1444 106.31 61.8644 106.625 62.3651L107.135 63.1763C107.468 63.6635 108.193 63.7308 108.753 63.3266C109.285 62.9417 109.481 62.2633 109.2 61.7741L108.691 60.9629C108.377 60.4626 107.66 60.3703 107.089 60.757V60.757Z" fill="#3A556A"/>
<path d="M102.831 63.5916C102.26 63.9789 102.052 64.6989 102.367 65.1996L102.877 66.0108C103.21 66.498 103.934 66.5654 104.494 66.1612C105.027 65.7762 105.223 65.0978 104.942 64.6086L104.433 63.7974C104.118 63.2973 103.401 63.205 102.831 63.5916V63.5916Z" fill="#3A556A"/>
<path d="M98.5716 66.4269C98.0016 66.8147 97.7945 67.5338 98.1088 68.0341L98.6184 68.8453C98.952 69.3325 99.6763 69.3998 100.236 68.9956C100.769 68.6107 100.965 67.9323 100.684 67.4431L100.175 66.632C99.86 66.1313 99.1424 66.0395 98.5716 66.4269V66.4269Z" fill="#3A556A"/>
<path d="M94.3135 69.2613C93.7436 69.6491 93.5365 70.3683 93.8508 70.8686L94.3604 71.6798C94.694 72.167 95.4182 72.2343 95.9782 71.8301C96.5111 71.4452 96.707 70.7668 96.4262 70.2776L95.9165 69.4664C95.6017 68.9658 94.8841 68.874 94.3135 69.2613V69.2613Z" fill="#3A556A"/>
<path d="M90.056 72.096C89.4857 72.484 89.2784 73.2034 89.5929 73.7039L90.1028 74.5154C90.4172 75.0157 91.1345 75.1074 91.7049 74.7203C92.2754 74.3331 92.483 73.6137 92.1686 73.1135L91.6587 72.3019C91.3451 71.8011 90.628 71.7087 90.0572 72.0952C90.0567 72.0955 90.0565 72.0957 90.056 72.096Z" fill="#3A556A"/>
<path d="M85.7979 74.9305C85.2276 75.3184 85.0204 76.0379 85.3349 76.5384L85.8448 77.3499C86.1591 77.8502 86.8764 77.9419 87.4469 77.5548C88.0173 77.1676 88.2249 76.4482 87.9106 75.9479L87.4007 75.1364C87.087 74.6356 86.37 74.5431 85.7991 74.9297C85.7986 74.93 85.7982 74.9303 85.7979 74.9305Z" fill="#3A556A"/>
<path d="M81.5397 77.765C80.9694 78.153 80.7622 78.8724 81.0767 79.3729L81.5866 80.1844C81.9017 80.6842 82.6192 80.7748 83.189 80.3872C83.7579 80.0002 83.9651 79.2823 83.6521 78.7826L83.1422 77.9711C82.828 77.4704 82.1107 77.3781 81.5397 77.765Z" fill="#3A556A"/>
<path d="M77.2814 80.5995C76.7111 80.9875 76.5039 81.7069 76.8184 82.2074L77.3283 83.019C77.6434 83.5188 78.3609 83.6094 78.9307 83.2218C79.4996 82.8348 79.7068 82.1169 79.3938 81.6172L78.8839 80.8056C78.5697 80.305 77.8524 80.2126 77.2814 80.5995Z" fill="#3A556A"/>
<path d="M73.0235 83.434C72.4532 83.822 72.246 84.5414 72.5604 85.0419L73.0703 85.8534C73.3854 86.3532 74.103 86.4438 74.6728 86.0562C75.2417 85.6692 75.4488 84.9513 75.1359 84.4516L74.626 83.6401C74.3115 83.1396 73.5942 83.0473 73.0235 83.434Z" fill="#3A556A"/>
<path d="M68.7641 86.2693C68.1936 86.6564 67.986 87.3758 68.3004 87.8761L68.301 87.8772L68.811 88.6887C69.126 89.1885 69.8436 89.2791 70.4134 88.8915C70.9823 88.5045 71.1894 87.7866 70.8765 87.2869L70.3666 86.4754C70.0523 85.9747 69.335 85.8824 68.7641 86.2693Z" fill="#3A556A"/>
<path d="M64.5073 89.103C63.9368 89.4901 63.7292 90.2095 64.0435 90.7098L64.0442 90.7108L64.5541 91.5224C64.8692 92.0221 65.5868 92.1127 66.1566 91.7251C66.7255 91.3382 66.9327 90.6203 66.6197 90.1206L66.1098 89.309C65.7953 88.8086 65.078 88.7163 64.5073 89.103Z" fill="#3A556A"/>
</svg>
