<svg width="168" height="156" viewBox="0 0 168 156" fill="none" xmlns="http://www.w3.org/2000/svg">
<path d="M47.8052 73.9999C47.8052 83.941 55.864 91.9999 65.8052 91.9999L92.8052 91.9999C95.5666 91.9999 97.8052 89.7613 97.8052 86.9999L97.8052 52.9999C97.8052 47.477 93.328 42.9999 87.8052 42.9999L52.8052 42.9999C50.0437 42.9999 47.8052 45.2385 47.8052 47.9999L47.8052 73.9999Z" fill="#FFF1DA"/>
<path d="M96.7043 87.534C95.3562 87.8809 94.0517 88.486 92.8716 89.3111C89.7956 91.4106 88.0594 94.3236 88.994 95.817C89.9286 97.3103 93.1797 96.8181 96.2557 94.7186C97.4529 93.9208 98.5071 92.9162 99.3534 91.767C99.7454 91.2122 99.7975 90.5348 99.4865 90.0394L98.2725 88.0994C97.9634 87.6024 97.3481 87.3808 96.7043 87.534Z" fill="#D5D6DB"/>
<path d="M87.9687 60.8035C86.9912 61.0552 86.0451 61.4941 85.1894 62.0925C82.9595 63.6145 81.6998 65.7267 82.3769 66.8087C83.054 67.8906 85.4124 67.5334 87.642 66.0116C88.51 65.4328 89.2743 64.7041 89.8881 63.8706C90.1721 63.4685 90.2097 62.9777 89.9843 62.6186L89.1052 61.2139C88.8814 60.8536 88.4355 60.6926 87.9687 60.8035Z" fill="#D5D6DB"/>
<path d="M75.1967 62.338C74.9768 62.3205 74.7449 62.3863 74.5464 62.5221L69.3085 66.0975C68.8703 66.3957 68.7087 66.9484 68.9479 67.3323C69.0026 67.4202 69.076 67.4945 69.164 67.5507L82.626 76.2148L100.092 64.2926L75.1967 62.338Z" fill="#029BC5"/>
<path d="M131.505 59.2735L83.9621 91.3431L55.6245 103.67L41.0806 107.041L39.384 104.356L118.661 51.8799C121.024 50.3096 123.679 49.3077 126.359 48.9758C127.532 48.8368 128.696 48.8392 129.822 48.9825C130.82 49.1017 131.772 49.3625 132.649 49.7571C133.627 50.2047 135.463 50.2019 136.087 51.1354C136.089 51.1338 137.628 55.4618 131.505 59.2735V59.2735Z" fill="#E1E6E9"/>
<path d="M84.4773 87.2822L64.5496 121.399C64.3023 121.877 64.4746 122.398 64.9339 122.563C65.2158 122.664 65.5552 122.61 65.8357 122.419L71.0699 118.862C72.0767 118.177 72.9602 117.32 73.6658 116.344L112.85 67.2129L84.4773 87.2822Z" fill="#029BC5"/>
<path d="M31.4889 87.8386C31.1351 87.73 30.7204 87.8052 30.3759 88.0403L26.0494 90.9918C25.4599 91.3936 25.2434 92.1373 25.5658 92.653C25.6272 92.7511 25.7056 92.8366 25.7986 92.9061L38.4822 102.423L51.232 93.8876L31.4889 87.8386Z" fill="#029BC5"/>
<path d="M42.685 104.078L36.3215 113.613C36.2281 113.75 36.2564 113.918 36.3846 113.987C36.4771 114.037 36.6007 114.023 36.6993 113.953L40.7429 111.208C40.7743 111.186 40.8025 111.16 40.8256 111.13L50.1805 98.9939L42.685 104.078Z" fill="#029BC5"/>
<path d="M129.039 49.4097C127.879 49.2608 126.681 49.2591 125.472 49.4039C124.344 51.0915 123.648 52.9691 123.454 54.8496C123.447 55.2263 123.759 55.4874 124.15 55.4329C124.272 55.4158 124.392 55.369 124.499 55.2969L131.95 50.2147C131.047 49.8044 130.067 49.5334 129.039 49.4097Z" fill="#029BC5"/>
<path d="M112.749 58.837L117.614 55.5447L122.487 63.2637L117.622 66.556L112.749 58.837Z" fill="#D5D6DB"/>
<path d="M109.723 62.0463C109.137 62.4441 108.921 63.1801 109.241 63.69L109.76 64.516C110.099 65.012 110.841 65.0776 111.417 64.6626C111.964 64.2673 112.168 63.5738 111.882 63.0756L111.364 62.2496C111.044 61.7401 110.31 61.649 109.723 62.0463V62.0463Z" fill="#3A556A"/>
<path d="M105.349 64.9584C104.762 65.3563 104.546 66.0922 104.866 66.6021L105.385 67.4281C105.725 67.9241 106.467 67.9898 107.042 67.5747C107.59 67.1794 107.793 66.4859 107.508 65.9877L106.989 65.1617C106.669 64.6524 105.935 64.5613 105.349 64.9584V64.9584Z" fill="#3A556A"/>
<path d="M100.973 67.8714C100.387 68.2698 100.172 69.0048 100.492 69.5142L101.01 70.3402C101.35 70.8362 102.092 70.9019 102.667 70.4868C103.215 70.0915 103.418 69.3981 103.133 68.8998L102.614 68.0739C102.294 67.564 101.559 67.4734 100.973 67.8714V67.8714Z" fill="#3A556A"/>
<path d="M96.5982 70.7834C96.0126 71.1817 95.7973 71.9168 96.1172 72.4263L96.6359 73.2523C96.9755 73.7482 97.7173 73.8139 98.2927 73.3988C98.8403 73.0035 99.044 72.3101 98.7583 71.8118L98.2396 70.9858C97.9193 70.4761 97.1845 70.3855 96.5982 70.7834V70.7834Z" fill="#3A556A"/>
<path d="M92.2241 73.6956C91.6381 74.0941 91.4227 74.8295 91.7428 75.3392L92.2617 76.1655C92.5817 76.6749 93.3161 76.7655 93.9022 76.3678C94.4883 75.9701 94.7041 75.2348 94.3842 74.7253L93.8653 73.899C93.5461 73.3891 92.8118 73.2977 92.2253 73.6948C92.2248 73.6951 92.2246 73.6953 92.2241 73.6956Z" fill="#3A556A"/>
<path d="M87.8494 76.6077C87.2635 77.0062 87.0481 77.7416 87.3681 78.2513L87.8871 79.0776C88.207 79.5871 88.9415 79.6776 89.5276 79.2799C90.1137 78.8822 90.3295 78.1469 90.0096 77.6374L89.4906 76.8111C89.1714 76.3012 88.4372 76.2098 87.8507 76.6069C87.8502 76.6072 87.8497 76.6076 87.8494 76.6077Z" fill="#3A556A"/>
<path d="M83.4747 79.5199C82.8887 79.9184 82.6733 80.6537 82.9934 81.1634L83.5123 81.9897C83.833 82.4986 84.5678 82.588 85.1532 82.1899C85.7377 81.7924 85.953 81.0585 85.6345 80.5497L85.1156 79.7234C84.7958 79.2136 84.0613 79.1224 83.4747 79.5199Z" fill="#3A556A"/>
<path d="M79.0998 82.4319C78.5138 82.8305 78.2985 83.5659 78.6185 84.0755L79.1375 84.9019C79.4581 85.4108 80.1929 85.5002 80.7783 85.102C81.3628 84.7045 81.5781 83.9707 81.2596 83.4618L80.7407 82.6355C80.4209 82.1257 79.6864 82.0345 79.0998 82.4319Z" fill="#3A556A"/>
<path d="M74.7253 85.344C74.1393 85.7425 73.9239 86.4779 74.244 86.9875L74.7629 87.8139C75.0836 88.3228 75.8184 88.4122 76.4038 88.014C76.9883 87.6165 77.2036 86.8827 76.8851 86.3739L76.3662 85.5475C76.0461 85.0379 75.3116 84.9468 74.7253 85.344Z" fill="#3A556A"/>
<path d="M70.3493 88.2569C69.7632 88.6546 69.5474 89.39 69.8673 89.8994L69.868 89.9005L70.387 90.7268C70.7076 91.2357 71.4424 91.3251 72.0279 90.927C72.6123 90.5295 72.8276 89.7956 72.5091 89.2868L71.9902 88.4604C71.6704 87.9506 70.9359 87.8594 70.3493 88.2569Z" fill="#3A556A"/>
<path d="M65.9759 91.1682C65.3898 91.5659 65.174 92.3012 65.4939 92.8106L65.4946 92.8117L66.0136 93.638C66.3342 94.1469 67.069 94.2363 67.6545 93.8382C68.2389 93.4407 68.4543 92.7069 68.1358 92.198L67.6168 91.3717C67.2968 90.8621 66.5623 90.7709 65.9759 91.1682Z" fill="#3A556A"/>
</svg>
