<svg width="373" height="276" viewBox="0 0 373 276" fill="none" xmlns="http://www.w3.org/2000/svg">
<path d="M122.472 335.615C57.4196 335.615 4.70992 284.42 4.70993 221.299C4.70993 158.178 57.4196 106.983 122.472 106.983C187.524 106.983 240.233 158.178 240.233 221.299C240.233 284.42 187.524 335.615 122.472 335.615Z" stroke="#6246E5"/>
<path d="M134.92 340.148C62.1337 340.148 3.15395 282.865 3.15396 212.235C3.15396 141.604 62.1337 84.3218 134.92 84.3218C207.707 84.3218 266.687 141.604 266.687 212.235C266.687 282.865 207.707 340.148 134.92 340.148Z" stroke="#6246E5"/>
<path d="M145.035 344.68C65.3729 344.68 0.819723 281.987 0.819727 204.681C0.81973 127.376 65.373 64.6824 145.035 64.6824C224.697 64.6824 289.25 127.376 289.25 204.681C289.25 281.987 224.697 344.68 145.035 344.68Z" stroke="#6246E5"/>
<path d="M159.818 347.702C74.1403 347.702 4.71032 280.274 4.71032 197.128C4.71032 113.982 74.1403 46.5537 159.818 46.5537C245.495 46.5537 314.925 113.982 314.925 197.128C314.925 280.274 245.495 347.702 159.818 347.702Z" stroke="#6246E5"/>
<path d="M174.211 350.723C82.7328 350.723 8.60027 278.729 8.60027 189.951C8.60028 101.174 82.7328 29.1799 174.211 29.1799C265.69 29.1799 339.822 101.174 339.822 189.951C339.822 278.729 265.69 350.723 174.211 350.723Z" stroke="#6246E5"/>
<path d="M190.55 354.5C90.048 354.5 8.60033 275.404 8.60033 177.866C8.60034 80.3271 90.048 1.23143 190.55 1.23144C291.052 1.23144 372.5 80.3271 372.5 177.866C372.5 275.404 291.052 354.5 190.55 354.5Z" stroke="#6246E5"/>
</svg>
